<svg xmlns="http://www.w3.org/2000/svg" width="1099.2" height="725.693" viewBox="0 0 1099.2 725.693"><g transform="translate(0 -0.005)"><circle cx="21.63" cy="21.63" r="21.63" transform="translate(963.95 349.46)" fill="#009688" opacity="0.1"/><circle cx="36.25" cy="36.25" r="36.25" transform="translate(1026.7 238.4)" fill="#009688" opacity="0.1"/><circle cx="21.63" cy="21.63" r="21.63" transform="translate(433.69 6.15)" fill="#009688" opacity="0.1"/><circle cx="21.63" cy="21.63" r="21.63" transform="translate(681.8 31.01)" fill="#009688" opacity="0.1"/><circle cx="36.25" cy="36.25" r="36.25" transform="translate(0 289.97)" fill="#009688" opacity="0.1"/><path d="M658.51,206.77c-64.72-2.41-126.36-24.85-185.22-49.41S356.12,105.61,293,92.6c-40.63-8.37-87.09-9.56-119.83,13.84C141.62,129,131.44,167.83,126,203.89c-4.12,27.14-6.54,55.7,4.74,81.1,7.83,17.64,21.74,32.46,31.36,49.35,33.47,58.78,9.81,131.27-26.46,188.66-17,26.92-36.74,52.6-49.87,81.26S66.54,665.76,78,695c11.38,29,38.51,50.74,67.9,66,59.69,31.09,130,40,198.61,45,151.82,11.16,304.46,6.33,456.69,1.49,56.33-1.79,112.92-3.61,168.34-13,30.78-5.2,62.55-13.45,84.89-33.36,28.37-25.27,35.4-68.07,16.39-99.76-31.88-53.16-120-66.37-142.31-123.42-12.26-31.4.33-66.38,18.16-95.5,38.23-62.48,102.33-117.29,105.7-188.71,2.32-49-28.49-98.16-76.13-121.37-49.94-24.33-119.18-21.27-156,19C782.32,193,715.65,208.91,658.51,206.77Z" transform="translate(-50.4 -87.11)" fill="#009688" opacity="0.1"/><path d="M565.83,249.17V584.58a111.1,111.1,0,0,0-34.63-5.34c-49.87,0-90.37,35.29-90.37,85.16s40.5,84.77,90.37,84.77,90.62-36.72,90.62-90V426.25h263V584.58a111.051,111.051,0,0,0-34.63-5.34c-49.87,0-90.37,35.29-90.37,85.16s40.5,84.77,90.37,84.77,90.62-36.72,90.62-90v-410Zm319,125h-263v-69h263Z" transform="translate(-50.4 -87.11)" fill="#009688"/><path d="M299.83,212.17v225.1a85.15,85.15,0,1,0,42.6,73.6V297.47h85.4v-85.3Z" transform="translate(-50.4 -87.11)" fill="#009688"/></g></svg>